# xmcd
#
# Track frame offsets:
#	150
#	11577
#	23634
#	35814
#	47831
#	58822
#	70929
#	82464
#	95006
#	107628
#	120619
#	132017
#	145182
#	159387
#	171823
#	184294
#	196488
#	208733
#	220698
#	230439
#	243637
#	255976
#	266714
#
# Disc length: 3731 seconds
#
# Revision: 0
# Processed by: cddbd v1.5.1PL0 Copyright (c) Steve Scherf et al.
# Submitted via: audiograbber 1.83.01
#
DISCID=560e9117
DTITLE=Various Artist - Country Love Songs 1
DYEAR=1900
DGENRE=country
TTITLE0=Ernest Tubb - Somebody Loves You
TTITLE1=Frankie Laine - Answer Me, Lord Above
TTITLE2=Hank Snow - The Gal Who Invented Kissing
TTITLE3=Hank Williams - You Win Again
TTITLE4=Jim and Jesse - Are You Missing Me
TTITLE5=Kitty Wells - Hey Joe
TTITLE6=Sonny James - That's Me Without You
TTITLE7=Webb Pierce - I'll Go On Alone
TTITLE8=Al Dexter - I Learned About Love From You
TTITLE9=Ernest Tubb and The Andrews Systers - I'm Biting My Fingernails And Think
TTITLE9=ing Of You
TTITLE10=Arthur "Big Boy" Crudup - My Baby Left Me
TTITLE11=Big Bill Broonzy - Keep Your Hands Of Her
TTITLE12=Bing Crosby - Gotta Get Me Somebody To Love
TTITLE13=Bob Wills and His Texas Playboys - Goodbye Liza Jane
TTITLE14=The Carter Family - Anchored In Love
TTITLE15=Cowboy Copas - Signed Sealed And Delivered
TTITLE16=The Delmore Brothers - You Can't Do Wrong And Get By
TTITLE17=Eddy Arnold - A Heart Full Of Love
TTITLE18=Tenessee Ernie Ford and Helen O'Conell - Hey Good Locking
TTITLE19=Ernest Tubb - Are You Waiting Just For Me
TTITLE20=Floyd Tillmann - I Love You So Much It Hurts
TTITLE21=Lefty Frizzel - Give Me More More More
TTITLE22=George Morgan - Candy Kisses
EXTD=
EXTT0=
EXTT1=
EXTT2=
EXTT3=
EXTT4=
EXTT5=
EXTT6=
EXTT7=
EXTT8=
EXTT9=
EXTT10=
EXTT11=
EXTT12=
EXTT13=
EXTT14=
EXTT15=
EXTT16=
EXTT17=
EXTT18=
EXTT19=
EXTT20=
EXTT21=
EXTT22=
PLAYORDER=
